<svg width="65" height="57" viewBox="0 0 65 57" fill="none" xmlns="http://www.w3.org/2000/svg">
<path d="M36.4355 0.601074H28.5645C12.8131 0.601074 0 13.1724 0 28.6265C0 35.4888 2.49564 41.9715 7.06672 47.0802L0.557832 53.4626C0.0148535 53.9972 -0.148789 54.8 0.14498 55.4988C0.438877 56.1959 1.13445 56.652 1.9043 56.652H36.4355C52.1869 56.652 65 44.0807 65 28.6265C65 13.1724 52.1869 0.601074 36.4355 0.601074Z" fill="url(#paint0_linear_129_3453)"/>
<path d="M36.3086 15.548C35.256 15.548 34.4043 16.3836 34.4043 17.4163V39.8367C34.4043 40.8694 35.256 41.7051 36.3086 41.7051C37.3612 41.7051 38.2129 40.8694 38.2129 39.8367V17.4163C38.2129 16.3836 37.3612 15.548 36.3086 15.548ZM28.6914 19.2847C27.6388 19.2847 26.7871 20.1204 26.7871 21.1531V36.1C26.7871 37.1327 27.6388 37.9683 28.6914 37.9683C29.744 37.9683 30.5957 37.1327 30.5957 36.1V21.1531C30.5957 20.1204 29.744 19.2847 28.6914 19.2847ZM43.9258 19.2847C42.8732 19.2847 42.0215 20.1204 42.0215 21.1531V36.1C42.0215 37.1327 42.8732 37.9683 43.9258 37.9683C44.9783 37.9683 45.8301 37.1327 45.8301 36.1V21.1531C45.8301 20.1204 44.9783 19.2847 43.9258 19.2847ZM51.543 23.0214C50.4904 23.0214 49.6387 23.8571 49.6387 24.8898V32.3633C49.6387 33.396 50.4904 34.2316 51.543 34.2316C52.5955 34.2316 53.4473 33.396 53.4473 32.3633V24.8898C53.4473 23.8571 52.5955 23.0214 51.543 23.0214ZM21.0742 23.0214C20.0217 23.0214 19.1699 23.8571 19.1699 24.8898V32.3633C19.1699 33.396 20.0217 34.2316 21.0742 34.2316C22.1268 34.2316 22.9785 33.396 22.9785 32.3633V24.8898C22.9785 23.8571 22.1268 23.0214 21.0742 23.0214ZM13.457 19.2847C12.4045 19.2847 11.5527 20.1204 11.5527 21.1531V36.1C11.5527 37.1327 12.4045 37.9683 13.457 37.9683C14.5096 37.9683 15.3613 37.1327 15.3613 36.1V21.1531C15.3613 20.1204 14.5096 19.2847 13.457 19.2847Z" fill="url(#paint1_linear_129_3453)"/>
<defs>
<linearGradient id="paint0_linear_129_3453" x1="32.5" y1="56.652" x2="32.5" y2="0.601074" gradientUnits="userSpaceOnUse">
<stop stop-color="#FFB777"/>
<stop offset="1" stop-color="#F4A261"/>
</linearGradient>
<linearGradient id="paint1_linear_129_3453" x1="32.5" y1="41.7051" x2="32.5" y2="15.548" gradientUnits="userSpaceOnUse">
<stop stop-color="#FFE0AD"/>
<stop offset="0.5028" stop-color="#FFFDEA"/>
<stop offset="1" stop-color="#FFFDEA"/>
</linearGradient>
</defs>
</svg>
