<svg width="170" height="150" viewBox="0 0 170 150" fill="none" xmlns="http://www.w3.org/2000/svg">
<path d="M95.293 0.292969H74.707C33.5112 0.292969 0 33.8042 0 75C0 93.2926 6.52707 110.573 18.4822 124.192L1.45895 141.205C0.0388477 142.63 -0.389141 144.77 0.37918 146.633C1.14783 148.491 2.96703 149.707 4.98047 149.707H95.293C136.489 149.707 170 116.196 170 75C170 33.8042 136.489 0.292969 95.293 0.292969Z" fill="url(#paint0_linear_157_6454)"/>
<path d="M94.9609 40.1367C92.2081 40.1367 89.9805 42.3643 89.9805 45.1172V104.883C89.9805 107.636 92.2081 109.863 94.9609 109.863C97.7138 109.863 99.9414 107.636 99.9414 104.883V45.1172C99.9414 42.3643 97.7138 40.1367 94.9609 40.1367ZM75.0391 50.0977C72.2862 50.0977 70.0586 52.3253 70.0586 55.0781V94.9219C70.0586 97.6747 72.2862 99.9023 75.0391 99.9023C77.7919 99.9023 80.0195 97.6747 80.0195 94.9219V55.0781C80.0195 52.3253 77.7919 50.0977 75.0391 50.0977ZM114.883 50.0977C112.13 50.0977 109.902 52.3253 109.902 55.0781V94.9219C109.902 97.6747 112.13 99.9023 114.883 99.9023C117.636 99.9023 119.863 97.6747 119.863 94.9219V55.0781C119.863 52.3253 117.636 50.0977 114.883 50.0977ZM134.805 60.0586C132.052 60.0586 129.824 62.2862 129.824 65.0391V84.9609C129.824 87.7138 132.052 89.9414 134.805 89.9414C137.558 89.9414 139.785 87.7138 139.785 84.9609V65.0391C139.785 62.2862 137.558 60.0586 134.805 60.0586ZM55.1172 60.0586C52.3643 60.0586 50.1367 62.2862 50.1367 65.0391V84.9609C50.1367 87.7138 52.3643 89.9414 55.1172 89.9414C57.8701 89.9414 60.0977 87.7138 60.0977 84.9609V65.0391C60.0977 62.2862 57.8701 60.0586 55.1172 60.0586ZM35.1953 50.0977C32.4424 50.0977 30.2148 52.3253 30.2148 55.0781V94.9219C30.2148 97.6747 32.4424 99.9023 35.1953 99.9023C37.9482 99.9023 40.1758 97.6747 40.1758 94.9219V55.0781C40.1758 52.3253 37.9482 50.0977 35.1953 50.0977Z" fill="url(#paint1_linear_157_6454)"/>
<defs>
<linearGradient id="paint0_linear_157_6454" x1="85" y1="149.707" x2="85" y2="0.292969" gradientUnits="userSpaceOnUse">
<stop stop-color="#2A9D8F"/>
<stop offset="1" stop-color="#F4A261"/>
</linearGradient>
<linearGradient id="paint1_linear_157_6454" x1="85" y1="109.863" x2="85" y2="40.1367" gradientUnits="userSpaceOnUse">
<stop stop-color="#FFE0AD"/>
<stop offset="0.5028" stop-color="#FFFDEA"/>
<stop offset="1" stop-color="#FFFDEA"/>
</linearGradient>
</defs>
</svg>
