<svg width="170" height="170" viewBox="0 0 170 170" fill="none" xmlns="http://www.w3.org/2000/svg">
<g clip-path="url(#clip0_157_6461)">
<path d="M148.803 88.6875C147.193 86.4576 144.08 85.9556 141.85 87.5659L139.785 89.0571V4.98047C139.785 2.22992 137.555 0 134.805 0H35.1956C32.445 0 30.2151 2.22992 30.2151 4.98047V89.0571L28.1505 87.5659C25.9206 85.9556 22.8075 86.4576 21.1971 88.6875C19.5868 90.9175 20.0888 94.0306 22.3187 95.6409L68.8031 129.213C69.6518 129.826 70.6721 130.156 71.719 130.156H98.2815C99.3284 130.156 100.349 129.826 101.197 129.213L147.682 95.6409C149.912 94.0306 150.414 90.9175 148.803 88.6875Z" fill="url(#paint0_linear_157_6461)"/>
<path d="M101.151 90.1355L85 81.6445L68.849 90.1355C65.1953 92.0563 60.9247 88.9538 61.6227 84.8851L64.7072 66.9006L51.6408 54.1639C48.6847 51.2826 50.316 46.2623 54.401 45.6689L72.4582 43.0452L80.5335 26.6824C82.3604 22.9806 87.639 22.9806 89.4658 26.6824L97.5412 43.0452L115.598 45.6689C119.683 46.2626 121.315 51.2826 118.359 54.1639L105.292 66.9006L108.377 84.8851C109.075 88.9538 104.805 92.0563 101.151 90.1355ZM168.389 75.3598L139.785 43.5771V89.0574L141.85 87.5663C144.08 85.9559 147.193 86.4579 148.803 88.6879C150.413 90.9178 149.911 94.0309 147.682 95.6413L101.197 129.213C100.348 129.826 99.3281 130.156 98.2812 130.156H71.7188C70.6719 130.156 69.6515 129.826 68.8028 129.213L22.3185 95.6413C20.0886 94.0309 19.5865 90.9178 21.1969 88.6879C22.8072 86.4579 25.9207 85.9559 28.1503 87.5663L30.2148 89.0571V43.5771L1.61068 75.3598C0.787578 76.2742 0.332031 77.4612 0.332031 78.6914V165.02C0.332031 167.77 2.56195 170 5.3125 170H164.688C167.438 170 169.668 167.77 169.668 165.02V78.6914C169.668 77.4612 169.212 76.2742 168.389 75.3598Z" fill="url(#paint1_linear_157_6461)"/>
</g>
<defs>
<linearGradient id="paint0_linear_157_6461" x1="85.0002" y1="130.156" x2="85.0002" y2="0" gradientUnits="userSpaceOnUse">
<stop stop-color="#FFE0AD"/>
<stop offset="0.5028" stop-color="#FFFDEA"/>
<stop offset="1" stop-color="#FFFDEA"/>
</linearGradient>
<linearGradient id="paint1_linear_157_6461" x1="85" y1="170" x2="85" y2="23.9062" gradientUnits="userSpaceOnUse">
<stop stop-color="#2A9D8F"/>
<stop offset="1" stop-color="#F4A261"/>
</linearGradient>
<clipPath id="clip0_157_6461">
<rect width="170" height="170" fill="white"/>
</clipPath>
</defs>
</svg>
