<svg width="1440" height="74" viewBox="0 0 1440 74" fill="none" xmlns="http://www.w3.org/2000/svg">
<g clip-path="url(#clip0_75_3696)">
<path d="M1440 73.2H0V-4.57764e-05H1440V73.2Z" fill="url(#paint0_linear_75_3696)" fill-opacity="0.25"/>
<mask id="mask0_75_3696" style="mask-type:alpha" maskUnits="userSpaceOnUse" x="0" y="0" width="1440" height="74">
<path d="M1440 73.2H0V-4.57764e-05H1440V73.2Z" fill="#D9D9D9"/>
</mask>
<g mask="url(#mask0_75_3696)">
<g filter="url(#filter0_f_75_3696)">
<path d="M-14.4004 -565.2C-14.4004 -223.888 262.287 52.7999 603.6 52.7999H835.2C1176.51 52.7999 1453.2 -223.888 1453.2 -565.2H-14.4004Z" fill="url(#paint1_linear_75_3696)"/>
</g>
</g>
<path fill-rule="evenodd" clip-rule="evenodd" d="M1008.3 25.9999C1001.64 33.8646 991.858 38.3999 981.552 38.3999H456.5C446.742 38.3999 437.555 33.8059 431.7 25.9999C425.845 18.1939 416.658 13.5999 406.9 13.5999H6.2C2.77584 13.5999 0 10.824 0 7.39994C0 3.97574 2.77582 1.1999 6.19998 1.1999H1433.8C1437.23 1.1999 1440 3.97574 1440 7.39994C1440 10.824 1437.23 13.5999 1433.8 13.5999H1035.05C1024.74 13.5999 1014.96 18.1353 1008.3 25.9999Z" fill="url(#paint2_linear_75_3696)" fill-opacity="0.5"/>
<path fill-rule="evenodd" clip-rule="evenodd" d="M1008.3 24C1001.63 31.6258 991.987 36 981.854 36H456.182C446.605 36 437.567 31.5698 431.7 24C425.833 16.4302 416.795 12 407.218 12H6C5.98985 12 5.97971 12 5.96957 11.9999H0V6V-0.000118256H36H1404H1440V6V11.9999H1434.04L1434 12H1034.75C1024.61 12 1014.97 16.3742 1008.3 24Z" fill="white"/>
</g>
<defs>
<filter id="filter0_f_75_3696" x="-43.8004" y="-594.6" width="1526.4" height="676.8" filterUnits="userSpaceOnUse" color-interpolation-filters="sRGB">
<feFlood flood-opacity="0" result="BackgroundImageFix"/>
<feBlend mode="normal" in="SourceGraphic" in2="BackgroundImageFix" result="shape"/>
<feGaussianBlur stdDeviation="14.7" result="effect1_foregroundBlur_75_3696"/>
</filter>
<linearGradient id="paint0_linear_75_3696" x1="720" y1="73.2" x2="720" y2="-4.57764e-05" gradientUnits="userSpaceOnUse">
<stop stop-color="#F4A261" stop-opacity="0"/>
<stop offset="1" stop-color="#F4A261" stop-opacity="0.15"/>
</linearGradient>
<linearGradient id="paint1_linear_75_3696" x1="720.836" y1="52.7999" x2="689.491" y2="-563.68" gradientUnits="userSpaceOnUse">
<stop stop-color="#F4A261" stop-opacity="0.06"/>
<stop offset="1" stop-color="#F4A261"/>
</linearGradient>
<linearGradient id="paint2_linear_75_3696" x1="0" y1="1.19908" x2="1440" y2="1.19896" gradientUnits="userSpaceOnUse">
<stop stop-color="#F4A261" stop-opacity="0"/>
<stop offset="0.338542" stop-color="#F4A261" stop-opacity="0.697917"/>
<stop offset="0.5" stop-color="#F4A261" stop-opacity="0.6"/>
<stop offset="0.666667" stop-color="#F4A261" stop-opacity="0.760417"/>
<stop offset="1" stop-color="#F4A261" stop-opacity="0"/>
</linearGradient>
<clipPath id="clip0_75_3696">
<rect width="1440" height="73.2" fill="white" transform="matrix(1 0 0 -1 0 73.2)"/>
</clipPath>
</defs>
</svg>
